<?xml version="1.0" encoding="UTF-8"?>
<svg version="1.1" xmlns="http://www.w3.org/2000/svg" width="320" height="320">
<path d="M0 0 C6.79820646 0.67982065 12.73851329 1.48656006 19.21875 3.25 C20.04330688 3.46817383 20.86786377 3.68634766 21.71740723 3.91113281 C23.43918789 4.36816027 25.16001233 4.82880469 26.87988281 5.29296875 C29.51945217 6.00524911 32.16172621 6.70667134 34.8046875 7.40625 C36.48453951 7.85354929 38.16423307 8.30144417 39.84375 8.75 C40.6332605 8.96043945 41.422771 9.17087891 42.23620605 9.38769531 C47.76432119 10.8821606 47.76432119 10.8821606 50 12 C50 87.57 50 163.14 50 241 C44.22198198 242.92600601 38.55260553 244.73961885 32.67578125 246.26171875 C31.92588425 246.45723831 31.17598724 246.65275787 30.40336609 246.85420227 C28.83502379 247.26167361 27.26623684 247.66743715 25.69702148 248.0715332 C23.30574879 248.68924396 20.91757152 249.31807676 18.52929688 249.94726562 C16.9949684 250.34443338 15.46046885 250.74094097 13.92578125 251.13671875 C13.21940018 251.3241716 12.5130191 251.51162445 11.78523254 251.70475769 C7.59069563 252.77025018 4.44501483 253 0 253 C0 169.51 0 86.02 0 0 Z " fill="#77E5DC" transform="translate(254,33)"/>
<path d="M0 0 C17.00759006 2.12594876 33.41929151 7.65743349 50 12 C50 78.99 50 145.98 50 215 C4 227 4 227 0 227 C0 152.09 0 77.18 0 0 Z " fill="#3159B4" transform="translate(16,46)"/>
<path d="M0 0 C0 44.55 0 89.1 0 135 C-10.89176008 132.57960887 -21.70575623 130.14647812 -32.49267578 127.33520508 C-34.5552662 126.79810874 -36.61933653 126.26697869 -38.68359375 125.73632812 C-48.72542961 123.1372852 -48.72542961 123.1372852 -51 122 C-51 86.03 -51 50.06 -51 13 C-26.41463415 5.97560976 -26.41463415 5.97560976 -15.375 3.125 C-14.20710938 2.81820312 -13.03921875 2.51140625 -11.8359375 2.1953125 C-10.7221875 1.9065625 -9.6084375 1.6178125 -8.4609375 1.3203125 C-7.47915527 1.06523926 -6.49737305 0.81016602 -5.48583984 0.54736328 C-3 0 -3 0 0 0 Z " fill="#00C7D1" transform="translate(226,113)"/>
<path d="M0 0 C9.0015244 1.12519055 9.0015244 1.12519055 12.74780273 2.10742188 C14.0033622 2.43280945 14.0033622 2.43280945 15.2842865 2.76477051 C16.15855789 2.99708374 17.03282928 3.22939697 17.93359375 3.46875 C19.3114077 3.82930481 19.3114077 3.82930481 20.71705627 4.19714355 C22.64299215 4.70237025 24.56827333 5.21009869 26.49291992 5.72021484 C29.45127404 6.50364765 32.41195476 7.27776902 35.37304688 8.05078125 C37.24753945 8.54372504 39.12189358 9.03719565 40.99609375 9.53125 C41.88453476 9.76356323 42.77297577 9.99587646 43.68833923 10.23522949 C49.88448167 11.88448167 49.88448167 11.88448167 51 13 C51.0954693 14.40411317 51.12188529 15.81299809 51.12025452 17.22035217 C51.12162918 18.13045547 51.12300385 19.04055878 51.12442017 19.97824097 C51.11902725 21.48766769 51.11902725 21.48766769 51.11352539 23.02758789 C51.11367142 24.08111954 51.11381744 25.13465118 51.1139679 26.22010803 C51.11326826 29.720978 51.10547348 33.22179552 51.09765625 36.72265625 C51.09579225 39.14261343 51.09436826 41.56257099 51.09336853 43.98252869 C51.08954192 50.36615024 51.07971041 56.74974921 51.06866455 63.13336182 C51.05845351 69.64163914 51.05387157 76.1499201 51.04882812 82.65820312 C51.03808827 95.43881175 51.02120112 108.21940467 51 121 C42.48655912 124.24980946 42.48655912 124.24980946 38.57519531 125.25854492 C37.807901 125.45852585 37.04060669 125.65850677 36.25006104 125.86454773 C35.45082214 126.06780167 34.65158325 126.2710556 33.828125 126.48046875 C32.56086578 126.80704216 32.56086578 126.80704216 31.26800537 127.14021301 C29.49710458 127.595266 27.7256306 128.04809375 25.95361328 128.4987793 C23.24199021 129.18954042 20.53306132 129.89022085 17.82421875 130.59179688 C16.09650667 131.03444981 14.36864707 131.4765275 12.640625 131.91796875 C11.83328918 132.12729538 11.02595337 132.33662201 10.19415283 132.55229187 C9.43946716 132.74281631 8.68478149 132.93334076 7.90722656 133.12963867 C7.24740784 133.29823898 6.58758911 133.46683929 5.90777588 133.64054871 C4 134 4 134 0 134 C0 89.78 0 45.56 0 0 Z " fill="#3B8BFE" transform="translate(94,146)"/>
</svg>
